<svg xmlns="http://www.w3.org/2000/svg" width="74" height="80" viewBox="0 0 87 40" fill="none">
  <g clip-path="url(#clip0_1_216)">
    <path fill-rule="evenodd" clip-rule="evenodd" d="M19.9473 0.120527L66.6667 0C76.806 0 86.0264 9.68738 86.0264 19.887C86.0264 30.0264 77.2128 39.8343 66.0188 39.8343C54.8249 39.8343 48.6328 33.8079 47.1262 25.1751L38.9454 24.8889C37.4388 33.5217 29.5593 40.0151 19.9322 40.0151C10.3202 40 0 30.8399 0 20.7006C0 10.5009 9.79284 0.120527 19.9473 0.120527Z" fill="url(#paint0_linear_1_216)"/>
    <path fill-rule="evenodd" clip-rule="evenodd" d="M16.7533 10.7871H23.081V17.0997H29.4539V23.4274H23.081V29.74H16.7533V23.4274H10.4407V17.0997H16.7533V10.7871Z" fill="white"/>
    <path fill-rule="evenodd" clip-rule="evenodd" d="M72.4671 17.0996C70.7345 17.0996 69.3334 18.4857 69.3334 20.2936C69.3334 22.0262 70.7194 23.4273 72.4671 23.4273C74.1997 23.4273 75.6611 22.0412 75.6611 20.2936C75.6611 18.5007 74.2147 17.0996 72.4671 17.0996Z" fill="white"/>
    <path fill-rule="evenodd" clip-rule="evenodd" d="M66.1544 10.7871C64.4218 10.7871 62.9604 12.1732 62.9604 13.9208C62.9604 15.7137 64.4068 17.1148 66.1544 17.1148C67.887 17.1148 69.3484 15.7287 69.3484 13.9208C69.3333 12.1732 67.887 10.7871 66.1544 10.7871Z" fill="white"/>
    <path fill-rule="evenodd" clip-rule="evenodd" d="M59.8268 17.0996C58.0942 17.0996 56.6328 18.4857 56.6328 20.2936C56.6328 22.0262 58.0791 23.4273 59.8268 23.4273C61.5594 23.4273 62.9605 22.0412 62.9605 20.2936C62.9605 18.5007 61.5744 17.0996 59.8268 17.0996Z" fill="white"/>
    <path fill-rule="evenodd" clip-rule="evenodd" d="M66.1544 23.4277C64.4218 23.4277 62.9604 24.8741 62.9604 26.6217C62.9604 28.3694 64.4068 29.7554 66.1544 29.7554C67.887 29.7554 69.3484 28.3694 69.3484 26.6217C69.3333 24.8741 67.887 23.4277 66.1544 23.4277Z" fill="white"/>
  </g>
  <defs>
    <linearGradient id="paint0_linear_1_216" x1="11.2989" y1="20.0022" x2="75.6531" y2="20.0022" gradientUnits="userSpaceOnUse">
      <stop stop-color="#FF42A5"/>
      <stop offset="1" stop-color="#FF42A5"/>
    </linearGradient>
    <clipPath id="clip0_1_216">
      <rect width="86.0414" height="40" fill="white"/>
    </clipPath>
  </defs>
</svg>